<svg xmlns="http://www.w3.org/2000/svg" viewBox="0 0 200 180">
  <rect width="200" height="180" fill="#343a33"/>
  <ellipse cx="100" cy="139" rx="73" ry="8" fill="#282e28"/>
  <path d="M31 71q0-9 12-9h113q13 0 13 9l5 52q0 14-15 14H40q-15 0-14-14Z" fill="#7c8e70"/>
  <path d="M31 75h138l-1-7q-2-6-12-6H43q-11 0-12 9Z" fill="#98a689"/>
  <path d="M28 118q69 19 144 0l2 8q-1 11-15 11H40q-14 0-14-12Z" fill="#617657"/>
  <path d="M38 76h121" stroke="#3f5341" stroke-width="3"/>
  <path d="M43 75h109" stroke="#c4c8b4" stroke-width="1" stroke-dasharray="2 2"/>
  <rect x="148" y="73" width="12" height="6" rx="2" fill="#b9bca8"/>
  <path d="m158 75 12 11-4 5-12-12" fill="none" stroke="#b9bca8" stroke-width="2"/>
  <rect x="80" y="101" width="40" height="17" rx="2" fill="#d7d9c6"/>
  <text x="100" y="112" text-anchor="middle" font-family="sans-serif" font-size="7" letter-spacing="1" fill="#56634f">epsc</text>
</svg>